<svg id="Layer_1" data-name="Layer 1" xmlns="http://www.w3.org/2000/svg" viewBox="0 0 1280 341.01"><defs><style>.cls-1{fill:#898989;}.cls-2{fill:#d0b08b;}.cls-3{fill:#a06c6e;}.cls-4{fill:#876f9a;}.cls-5,.cls-9{fill:none;}.cls-5{stroke:#a7a7a7;stroke-miterlimit:10;stroke-width:2px;}.cls-6{fill:#a7a7a7;}.cls-7{fill:#29abe2;}.cls-8{opacity:0.8;}.cls-9{stroke:#f2f2f2;stroke-width:5px;}.cls-10{fill:#00558d;}</style></defs><path class="cls-1" d="M98.61,288.37H90l-3-3.81a20,20,0,0,1-5.9,3.13,21.21,21.21,0,0,1-6.77,1.12A18.5,18.5,0,0,1,66,287a12.86,12.86,0,0,1-5.47-4.93,14,14,0,0,1-1.91-7.34,16.36,16.36,0,0,1,2-8.46,18.57,18.57,0,0,1,6.69-6.23,34.31,34.31,0,0,1-3.92-6,13.68,13.68,0,0,1-1.4-6.16A11.06,11.06,0,0,1,64,241.43a13.82,13.82,0,0,1,4.68-4.32,12.39,12.39,0,0,1,3.53-1.48,21.26,21.26,0,0,1,4.53-.39,14.34,14.34,0,0,1,6.66,1.58,12.58,12.58,0,0,1,4.83,4.29A10.68,10.68,0,0,1,90,247.05a14,14,0,0,1-2.52,8.53q-2.52,3.42-9,7L86.66,273q1.8-3.46,1.94-9.94h7.78a39.87,39.87,0,0,1-.86,8.14,27.38,27.38,0,0,1-3.75,8.35ZM82.05,278.8,72,266.2a12.11,12.11,0,0,0-3.45,3.2,7.06,7.06,0,0,0-1.15,4.07,7.58,7.58,0,0,0,2.23,5.87,8.69,8.69,0,0,0,6.12,2.05A8.52,8.52,0,0,0,82.05,278.8Zm-10-35.39a5.39,5.39,0,0,0-1.69,4.07,10.73,10.73,0,0,0,2.09,6.84l1.65,2.3Q82,252.3,82,247.41a5.34,5.34,0,0,0-1.58-4.25,6.19,6.19,0,0,0-4.18-1.37A5.77,5.77,0,0,0,72.08,243.41Z"/><path class="cls-2" d="M118,254.75H109.7l-2.45-25.27h13Z"/><path class="cls-2" d="M137.38,285.6a12,12,0,0,1-3.2-8.75q0-7.26,5.25-10.22T153,263.68h4.47V262a6.35,6.35,0,0,0-1.73-4.36,6.65,6.65,0,0,0-5.19-1.9,11.68,11.68,0,0,0-4.75,1,17.89,17.89,0,0,0-4.46,2.84l-5-6a26.73,26.73,0,0,1,7.24-4.32,22.78,22.78,0,0,1,8.31-1.44q7.71,0,11.59,4t3.89,10.84v14a112.38,112.38,0,0,0,.72,11.38H157.94a35.6,35.6,0,0,1-.36-5,11.15,11.15,0,0,1-4.29,4.42,12.53,12.53,0,0,1-6.15,1.41Q140.59,288.88,137.38,285.6Zm18.22-6.8q1.83-2.88,1.83-8.28c-.81,0-1.65-.07-2.52-.07a24.43,24.43,0,0,0-9,1.29,4.59,4.59,0,0,0-3.09,4.54,4.48,4.48,0,0,0,2.05,4.1,9.42,9.42,0,0,0,5.15,1.3A6.18,6.18,0,0,0,155.6,278.8Z"/><path class="cls-3" d="M223.53,288.16H212.87V245.32H199.41V236h37.44v9.36H223.53Z"/><path class="cls-4" d="M450.71,249.46v32.62h9.57v7H431.12v-7h9.72V256.37H430.47v-6.91ZM439.8,242.4q-1.41-1.36-1.41-4.68c0-2.2.47-3.78,1.41-4.71s2.51-1.41,4.71-1.41,3.84.46,4.76,1.37,1.36,2.5,1.36,4.75-.46,3.77-1.4,4.68-2.51,1.37-4.72,1.37S440.73,243.32,439.8,242.4Z"/><path class="cls-4" d="M468.35,257.24a44.78,44.78,0,0,0-.58-7.78h8.78l.44,4a8.47,8.47,0,0,1,2.55-3.42,6,6,0,0,1,3.78-1.26,6.1,6.1,0,0,1,3.82,1.22,6.71,6.71,0,0,1,2.23,3.82q2.08-5,7.78-5,8.13,0,8.13,11.81v28.44h-8.64v-28.3q0-4.45-2.66-4.46a2.64,2.64,0,0,0-2.2,1.08,5.17,5.17,0,0,0-.83,3.17v28.51h-8.2V260.69a5.92,5.92,0,0,0-.76-3.24,2.46,2.46,0,0,0-2.2-1.15,2.34,2.34,0,0,0-2.08,1.08,5.74,5.74,0,0,0-.72,3.17v28.51h-8.64Z"/><path class="cls-4" d="M512.7,258c0-1.4,0-2.7-.11-3.93s-.11-2.1-.11-2.63l-.14-1.94h9.43l.57,5.33a10.33,10.33,0,0,1,10.44-6,11.57,11.57,0,0,1,8.1,3.06,18.66,18.66,0,0,1,5,7.81,29.45,29.45,0,0,1,1.65,9.72,26.49,26.49,0,0,1-1.76,9.58,18.14,18.14,0,0,1-5.15,7.49,12,12,0,0,1-8.06,2.88,15.28,15.28,0,0,1-5.87-.94,9.7,9.7,0,0,1-4.07-3.74v18.14H512.7Zm23,20.26a18.8,18.8,0,0,0,2-8.89,25,25,0,0,0-.83-6.33,14.07,14.07,0,0,0-2.55-5.33,5.27,5.27,0,0,0-4.25-2.16,5.56,5.56,0,0,0-4.29,2.12A14.4,14.4,0,0,0,523,263a22.12,22.12,0,0,0-1,6.4,20,20,0,0,0,.94,6.05,11.9,11.9,0,0,0,2.7,4.79,5.59,5.59,0,0,0,4.14,1.84A6.37,6.37,0,0,0,535.66,278.22Z"/><path class="cls-4" d="M569.11,287q-3.42-2.88-3.42-9.43V239.38H554.38v-7.2h21.17v43.06q0,6.48,5.55,6.48a18.28,18.28,0,0,0,8.42-1.88v8.21a21.6,21.6,0,0,1-5,1.51,34.4,34.4,0,0,1-5.26.36Q572.53,289.92,569.11,287Z"/><path class="cls-3" d="M639.05,289.06v-52.2h12q8.13,0,13.28,2.48a16.15,16.15,0,0,1,7.74,8.14q2.6,5.66,2.59,15.16T672.28,278a16,16,0,0,1-7.7,8.43q-5.3,2.66-14.08,2.66Zm12.68-8.93q6.18,0,8.89-4.61t2.7-12.88q0-7.92-2.52-12.39t-8.5-4.46h-2.66v34.34Z"/><path class="cls-3" d="M691.76,287.58a17.74,17.74,0,0,1-7.13-6.76,21.33,21.33,0,0,1-2.81-11.34,25.52,25.52,0,0,1,2.16-10.8,16.34,16.34,0,0,1,6.27-7.24,18.3,18.3,0,0,1,9.86-2.56q9.36,0,13,6t3.67,17.06H691.47c.19,3.32,1.16,5.8,2.92,7.46a9.7,9.7,0,0,0,6.94,2.48,24,24,0,0,0,6.41-.86,10.66,10.66,0,0,0,4.39-2.09l3.46,6.62a20.4,20.4,0,0,1-6.55,3,30,30,0,0,1-8.57,1.3A19,19,0,0,1,691.76,287.58Zm16-22.78a9.14,9.14,0,0,0-2.16-6.23,6.92,6.92,0,0,0-5.47-2.49,8,8,0,0,0-5.87,2.45,8.58,8.58,0,0,0-2.41,6.27Z"/><path class="cls-3" d="M730.42,289.06l.07-23.62a35.93,35.93,0,0,0-.21-4.28c-.15-1.13-.29-2.11-.44-3s-.24-1.38-.28-1.62H723.8v-7.13h14l1.36,6.7q2.88-7.5,11.6-7.49a12,12,0,0,1,5.36,1.37,19.93,19.93,0,0,1,4.79,3.24L755.19,260a9.44,9.44,0,0,0-6.62-2.37,6.57,6.57,0,0,0-4,1.4,9.79,9.79,0,0,0-3,4.14,16.79,16.79,0,0,0-1.15,6.55v19.37Z"/><path class="cls-3" d="M776.72,287.58a17.74,17.74,0,0,1-7.13-6.76,21.33,21.33,0,0,1-2.81-11.34,25.52,25.52,0,0,1,2.16-10.8,16.34,16.34,0,0,1,6.27-7.24,18.3,18.3,0,0,1,9.86-2.56q9.36,0,13,6t3.67,17.06H776.43c.19,3.32,1.16,5.8,2.91,7.46a9.74,9.74,0,0,0,6.95,2.48,24,24,0,0,0,6.41-.86,10.66,10.66,0,0,0,4.39-2.09l3.46,6.62a20.4,20.4,0,0,1-6.55,3,30,30,0,0,1-8.57,1.3A19,19,0,0,1,776.72,287.58Zm16-22.78a9.14,9.14,0,0,0-2.16-6.23,6.92,6.92,0,0,0-5.47-2.49,8,8,0,0,0-5.87,2.45,8.54,8.54,0,0,0-2.41,6.27Z"/><path class="cls-3" d="M820.35,289.06V257.74h-9.94v-7.63h10v-7c0-3.88,1.27-6.72,3.82-8.49s6-2.67,10.22-2.67q6.84,0,9.14.29v7.85L842,240c-2-.1-3.65-.15-4.9-.15a9,9,0,0,0-5.14,1.23c-1.18.81-1.77,2.28-1.77,4.39v4.61h10.73v7.63H830.43v31.32Z"/><path class="cls-1" d="M898.83,287.69h-9.44v-14H876.15v-8.78h13.24V250.68h9.44v14.26h13.25v8.78H898.83Z"/><path class="cls-2" d="M957.43,255.65h-8.28l-2.44-25.27h13Z"/><path class="cls-2" d="M983.53,287.84a19.91,19.91,0,0,1-7.16-5.62l5.25-5.83a29.16,29.16,0,0,0,5.51,4.14,12.71,12.71,0,0,0,6.16,1.4,9.58,9.58,0,0,0,4.68-1.11,3.46,3.46,0,0,0,2-3.14,3,3,0,0,0-1.8-2.8,34.38,34.38,0,0,0-6.33-2.16l-1.66-.44q-6.26-1.57-9.32-4.14a8.72,8.72,0,0,1-3.06-7.09,11.21,11.21,0,0,1,1.8-6.23,12.37,12.37,0,0,1,5.22-4.39,18.76,18.76,0,0,1,8.1-1.62q9.44,0,15,5.4l-5.4,5.69a13.76,13.76,0,0,0-8.92-3.1,9.75,9.75,0,0,0-4.9,1.08,3.2,3.2,0,0,0-1.87,2.81c0,1.35.79,2.39,2.37,3.13a43,43,0,0,0,7,2.34c1.63.39,2.81.7,3.53.94q9.13,3,9.14,10.87a9.91,9.91,0,0,1-4.21,8.61q-4.21,3-11.63,3A23.46,23.46,0,0,1,983.53,287.84Z"/><path class="cls-2" d="M1032.1,286.94c-1.88-1.66-2.81-4.22-2.81-7.67v-22h-10.95v-7.78h10.95V235h9.86v14.47h11.23v7.78h-11.23V274.8c0,2.64.39,4.43,1.15,5.37s2.21,1.4,4.32,1.4q1.31,0,3.57-.21a26.17,26.17,0,0,0,3.42-.51v7.56a36.51,36.51,0,0,1-4.54.69c-2.06.21-3.86.32-5.4.32Q1034.91,289.42,1032.1,286.94Z"/><path class="cls-2" d="M1063.24,286.5a11.93,11.93,0,0,1-3.21-8.74q0-7.27,5.26-10.23t13.61-2.95h4.46v-1.73a6.3,6.3,0,0,0-1.73-4.35,6.61,6.61,0,0,0-5.18-1.91,11.78,11.78,0,0,0-4.75,1,17.8,17.8,0,0,0-4.47,2.85l-5-6a27,27,0,0,1,7.24-4.32,22.8,22.8,0,0,1,8.32-1.44q7.7,0,11.59,4t3.89,10.83v14A112.21,112.21,0,0,0,1094,289h-10.23a35.6,35.6,0,0,1-.36-5,11.29,11.29,0,0,1-4.28,4.43,12.71,12.71,0,0,1-6.16,1.4Q1066.44,289.78,1063.24,286.5Zm18.21-6.8q1.85-2.88,1.84-8.28c-.82-.05-1.66-.07-2.52-.07a24.36,24.36,0,0,0-9,1.29,4.59,4.59,0,0,0-3.1,4.54,4.5,4.5,0,0,0,2,4.1,9.44,9.44,0,0,0,5.15,1.3A6.16,6.16,0,0,0,1081.45,279.7Z"/><path class="cls-2" d="M1117.05,286.94q-2.8-2.49-2.8-7.67v-22h-11v-7.78h11V235h9.86v14.47h11.23v7.78h-11.23V274.8q0,4,1.15,5.37c.77.93,2.21,1.4,4.32,1.4.87,0,2.05-.07,3.57-.21a26.17,26.17,0,0,0,3.42-.51v7.56a36.83,36.83,0,0,1-4.54.69c-2.06.21-3.86.32-5.4.32Q1119.86,289.42,1117.05,286.94Z"/><path class="cls-2" d="M1169.25,249.46v32.62h9.58v7h-29.16v-7h9.72V256.37H1149v-6.91Zm-10.9-7.06q-1.41-1.36-1.41-4.68c0-2.2.47-3.78,1.41-4.71s2.5-1.41,4.71-1.41,3.84.46,4.75,1.37,1.37,2.5,1.37,4.75-.47,3.77-1.4,4.68-2.51,1.37-4.72,1.37S1159.28,243.32,1158.35,242.4Z"/><path class="cls-2" d="M1197.19,287.37a17.24,17.24,0,0,1-7-7.06,24.93,24.93,0,0,1-.11-21.78,17.25,17.25,0,0,1,7-7.13,21.77,21.77,0,0,1,10.73-2.52,18.28,18.28,0,0,1,9.15,2.06,19.77,19.77,0,0,1,6.19,5.58l-6.34,5.68a18.82,18.82,0,0,0-4.1-3.63,9,9,0,0,0-4.75-1.19,9.7,9.7,0,0,0-7.46,3.17,12.05,12.05,0,0,0-2.91,8.49,13.19,13.19,0,0,0,1.55,6.63,10.63,10.63,0,0,0,3.89,4.1,9.35,9.35,0,0,0,4.78,1.37,10.33,10.33,0,0,0,4.94-1.4,14.2,14.2,0,0,0,4.28-3.57l6.34,5.55a23.39,23.39,0,0,1-6.7,5.86,18.47,18.47,0,0,1-9.36,2.2A20.86,20.86,0,0,1,1197.19,287.37Z"/><line class="cls-5" x1="295.68" y1="261.23" x2="355" y2="261.23"/><polygon class="cls-6" points="353.25 267.21 363.62 261.23 353.25 255.25 353.25 267.21"/><path class="cls-7" d="M325.62,164.84h9.61v4.28h-4.4v1.81h4.33V175h-4.33v1.89h4.57v4.28h-9.78Z"/><path class="cls-7" d="M344,172.72l-4.33-7.88h5.7l1.47,2.67,1.46-2.67H354l-4.33,7.88,4.64,8.44h-5.69l-1.81-3.26L345,181.16h-5.7Z"/><path class="cls-7" d="M361.1,169.12h-3v-4.28h11.39v4.28h-3v12H361.1Z"/><path class="cls-7" d="M374,164.84h9.61v4.28h-4.4v1.81h4.32V175h-4.32v1.89h4.57v4.28H374Z"/><path class="cls-7" d="M388.93,164.84h4.28l4.5,6.29v-6.29h5.12v16.32h-4.31l-4.47-6.26v6.26h-5.12Z"/><path class="cls-7" d="M408.21,181.16V164.84h4.52a14.68,14.68,0,0,1,4.1.52,8.11,8.11,0,0,1,3,1.54,6.66,6.66,0,0,1,1.88,2.55,9.94,9.94,0,0,1,0,7.07,6.69,6.69,0,0,1-1.88,2.56,8.43,8.43,0,0,1-3,1.55,14.66,14.66,0,0,1-4.1.53Zm5.2-4.65a4.19,4.19,0,0,0,2.84-.87,3.31,3.31,0,0,0,1-2.65,3.27,3.27,0,0,0-1-2.64,4.25,4.25,0,0,0-2.84-.86Z"/><path class="cls-7" d="M438.12,169.12h-3v-4.28H446.5v4.28h-3v12h-5.38Z"/><path class="cls-7" d="M451,164.84h5.21v5.56h2.91v-5.56h5.23v16.32h-5.23v-6h-2.91v6H451Z"/><path class="cls-7" d="M469.76,164.84h9.61v4.28H475v1.81h4.33V175H475v1.89h4.57v4.28h-9.78Z"/><path class="cls-7" d="M493.24,164.84h5.43v12h4.5v4.28h-9.93Z"/><path class="cls-7" d="M507.69,164.84h5.53v16.32h-5.53Z"/><path class="cls-7" d="M518.6,164.84h9.61v4.28h-4.4v1.81h4.33V175h-4.33v6.17H518.6Z"/><path class="cls-7" d="M533.22,164.84h9.62v4.28h-4.41v1.81h4.33V175h-4.33v1.89H543v4.28h-9.79Z"/><path class="cls-7" d="M550.29,169.12h-3v-4.28h11.39v4.28h-3v12h-5.39Z"/><path class="cls-7" d="M563.21,164.84h5.52v16.32h-5.52Z"/><path class="cls-7" d="M574.11,164.84h4.31l4.25,6.26,4.24-6.26h4.3v16.32H586v-5.87l-3.33,4.89-3.35-4.89v5.87h-5.21Z"/><path class="cls-7" d="M596.59,164.84h9.61v4.28h-4.4v1.81h4.33V175H601.8v1.89h4.57v4.28h-9.78Z"/><path class="cls-7" d="M619.7,173a8.28,8.28,0,0,1,.67-3.32,8.48,8.48,0,0,1,1.84-2.73,8.71,8.71,0,0,1,2.72-1.84,8.61,8.61,0,0,1,6.66,0,8.71,8.71,0,0,1,2.72,1.84,8.48,8.48,0,0,1,1.84,2.73,8.59,8.59,0,0,1,0,6.65,8.57,8.57,0,0,1-4.56,4.56,8.61,8.61,0,0,1-6.66,0,8.57,8.57,0,0,1-4.56-4.56A8.33,8.33,0,0,1,619.7,173Zm5.14,0a3.26,3.26,0,0,0,.27,1.33,3.44,3.44,0,0,0,1.82,1.83,3.41,3.41,0,0,0,2.66,0,3.42,3.42,0,0,0,0-6.31,3.41,3.41,0,0,0-2.66,0,3.38,3.38,0,0,0-1.82,1.82A3.29,3.29,0,0,0,624.84,173Z"/><path class="cls-7" d="M641.83,164.84h9.62v4.28H647v1.81h4.33V175H647v6.17h-5.21Z"/><path class="cls-7" d="M669.86,164.84h3.91L680,181.16h-5.13l-.54-1.47h-4.94l-.54,1.47h-5.14Zm3.06,11.25-1.1-2.86-1.1,2.86Z"/><path class="cls-7" d="M692.56,164.84h5.62a9.63,9.63,0,0,1,2.9.42,6.71,6.71,0,0,1,2.31,1.22,5.63,5.63,0,0,1,1.53,2,6.35,6.35,0,0,1,.55,2.72,5.77,5.77,0,0,1-.34,2.08,6.66,6.66,0,0,1-.76,1.42,5.91,5.91,0,0,1-1.1,1.08l3.05,5.38h-6.11L697.76,177v4.14h-5.2Zm5.2,8H698a2.84,2.84,0,0,0,1.58-.42,1.82,1.82,0,0,0,0-2.79,2.84,2.84,0,0,0-1.58-.41h-.27Z"/><path class="cls-7" d="M710.48,164.84h9.61v4.28h-4.4v1.81H720V175h-4.33v1.89h4.57v4.28h-9.78Z"/><path class="cls-7" d="M725.4,164.84H735v4.28h-4.4v1.81h4.33V175h-4.33v6.17H725.4Z"/><path class="cls-7" d="M740,164.84h9.61v4.28h-4.41v1.81h4.33V175h-4.33v1.89h4.58v4.28H740Z"/><path class="cls-7" d="M754.94,164.84h5.63a9.63,9.63,0,0,1,2.9.42,6.9,6.9,0,0,1,2.31,1.22,5.63,5.63,0,0,1,1.53,2,6.51,6.51,0,0,1,.55,2.72,5.55,5.55,0,0,1-.35,2.08,5.87,5.87,0,0,1-.76,1.42,5.36,5.36,0,0,1-1.1,1.08l3.06,5.38H762.6L760.15,177v4.14h-5.21Zm5.21,8h.27a2.84,2.84,0,0,0,1.58-.42,1.82,1.82,0,0,0,0-2.79,2.84,2.84,0,0,0-1.58-.41h-.27Z"/><path class="cls-7" d="M772.87,164.84h9.61v4.28h-4.4v1.81h4.33V175h-4.33v1.89h4.57v4.28h-9.78Z"/><path class="cls-7" d="M787.79,164.84h4.28l4.5,6.29v-6.29h5.11v16.32h-4.31l-4.47-6.26v6.26h-5.11Z"/><path class="cls-7" d="M806.69,173a8.72,8.72,0,0,1,.69-3.53,8.06,8.06,0,0,1,4.59-4.43,9.27,9.27,0,0,1,3.33-.6,10.29,10.29,0,0,1,2.48.27,11.41,11.41,0,0,1,1.87.61,8.51,8.51,0,0,1,1.57.86l-2.57,4.52a9.84,9.84,0,0,0-.86-.56,7.13,7.13,0,0,0-1-.38,4.35,4.35,0,0,0-1.3-.18,3.57,3.57,0,0,0-1.4.27,3.63,3.63,0,0,0-1.11.73,3.35,3.35,0,0,0-1,2.42,3.27,3.27,0,0,0,.28,1.33,3.4,3.4,0,0,0,.78,1.09,3.56,3.56,0,0,0,1.14.74,3.86,3.86,0,0,0,1.45.27,4.57,4.57,0,0,0,1.39-.2,5.3,5.3,0,0,0,1-.44,3.45,3.45,0,0,0,.85-.64l2.57,4.53a7,7,0,0,1-1.56.95,13.35,13.35,0,0,1-1.89.64,10,10,0,0,1-2.51.29A9.84,9.84,0,0,1,812,181a8.37,8.37,0,0,1-2.78-1.75,7.85,7.85,0,0,1-1.84-2.7A9,9,0,0,1,806.69,173Z"/><path class="cls-7" d="M825.74,164.84h9.61v4.28H831v1.81h4.33V175H831v1.89h4.58v4.28h-9.79Z"/><path class="cls-7" d="M840.54,177.07h5.23v4.09h-5.23Z"/><path class="cls-7" d="M859.15,176.09a6.66,6.66,0,0,0,1.13.27,9,9,0,0,0,1.11.2,10.41,10.41,0,0,0,1.26.07c.75,0,1.12-.28,1.12-.83a.93.93,0,0,0-.34-.65,11,11,0,0,0-.87-.73l-1.12-.89a8,8,0,0,1-1.13-1.13,5.88,5.88,0,0,1-.87-1.43,4.54,4.54,0,0,1-.34-1.82,4.66,4.66,0,0,1,.42-2,4,4,0,0,1,1.15-1.47,5.11,5.11,0,0,1,1.72-.89,7,7,0,0,1,2.12-.31,11.46,11.46,0,0,1,1.17.06l1.05.11,1,.15v4.57l-.44-.05-.44,0a4.12,4.12,0,0,0-.51,0H866a2.7,2.7,0,0,0-.41.06.9.9,0,0,0-.35.18.43.43,0,0,0-.14.34c0,.13.11.29.33.49l.8.68c.32.26.67.56,1.06.91a7.41,7.41,0,0,1,1.05,1.17,6.85,6.85,0,0,1,.81,1.49,5.26,5.26,0,0,1,.33,1.86,5.83,5.83,0,0,1-.35,2,4.34,4.34,0,0,1-1.06,1.64,5.17,5.17,0,0,1-1.85,1.1,7.88,7.88,0,0,1-2.66.4c-.62,0-1.2,0-1.73-.08s-1-.13-1.4-.21a12.08,12.08,0,0,1-1.3-.29Z"/><path class="cls-7" d="M879.11,164.84H883l6.19,16.32h-5.14l-.54-1.47h-4.94l-.54,1.47h-5.13Zm3,11.25-1.1-2.86-1.1,2.86Z"/><path class="cls-7" d="M893.24,164.84h9.61v4.28h-4.4v1.81h4.33V175h-4.33v6.17h-5.21Z"/><path class="cls-7" d="M907.87,164.84h9.61v4.28h-4.4v1.81h4.32V175h-4.32v1.89h4.57v4.28h-9.78Z"/><path class="cls-7" d="M922.79,164.84h5.42v12h4.5v4.28h-9.92Z"/><path class="cls-7" d="M938.14,174.14l-5.06-9.3h5.8l1.88,3.45,1.86-3.45h5.79l-5.06,9.3v7h-5.21Z"/><path class="cls-7" d="M949.27,177.07h5.23v4.09h-5.23Z"/><g class="cls-8"><path class="cls-9" d="M486.3,92.61a46.66,46.66,0,0,1,3.63-18.75,43.59,43.59,0,0,1,9.87-14.34,42.89,42.89,0,0,1,14.53-9.15A48.91,48.91,0,0,1,532,47.19a55.17,55.17,0,0,1,13.17,1.43,62.43,62.43,0,0,1,9.92,3.25,46.67,46.67,0,0,1,8.31,4.54l-13.63,24a46.93,46.93,0,0,0-4.54-3,44.18,44.18,0,0,0-5.25-2,22.83,22.83,0,0,0-7-1,18.8,18.8,0,0,0-7.39,1.43,19,19,0,0,0-5.91,3.89,18,18,0,0,0-4,5.78,17.49,17.49,0,0,0-1.43,7.07,17,17,0,0,0,1.49,7.07,18.19,18.19,0,0,0,4.09,5.78,19.34,19.34,0,0,0,6.1,3.89,20.08,20.08,0,0,0,7.65,1.43,24.31,24.31,0,0,0,7.4-1,26.74,26.74,0,0,0,5.45-2.34,19.93,19.93,0,0,0,4.54-3.37l13.63,24a38.83,38.83,0,0,1-8.31,5.06,71.11,71.11,0,0,1-10,3.37,55.84,55.84,0,0,1-32-1.75,44.07,44.07,0,0,1-14.79-9.28,42.1,42.1,0,0,1-9.74-14.34A47.52,47.52,0,0,1,486.3,92.61Z"/><path class="cls-9" d="M567.92,49.27h29.84a51.46,51.46,0,0,1,15.38,2.21A35.84,35.84,0,0,1,625.4,58a29.77,29.77,0,0,1,8.11,10.58A34,34,0,0,1,636.43,83a29.8,29.8,0,0,1-1.81,11,33.84,33.84,0,0,1-4,7.52,27.66,27.66,0,0,1-5.84,5.71L641,135.82H608.53l-13-21.93v21.93H567.92Zm27.64,42.56H597a15.22,15.22,0,0,0,8.37-2.2q3.43-2.2,3.43-7.4c0-3.46-1.14-5.92-3.43-7.4a15.22,15.22,0,0,0-8.37-2.2h-1.43Z"/><path class="cls-9" d="M657.45,98.58,630.59,49.27h30.76l10,18.3,9.86-18.3H712L685.09,98.58v37.24H657.45Z"/><path class="cls-9" d="M702.87,92.61A44.23,44.23,0,0,1,706.44,75a45.45,45.45,0,0,1,24.2-24.2,45.39,45.39,0,0,1,35.29,0A45.45,45.45,0,0,1,790.13,75a45.42,45.42,0,0,1,0,35.3,45.36,45.36,0,0,1-24.2,24.2,45.39,45.39,0,0,1-35.29,0,45.36,45.36,0,0,1-24.2-24.2A44.23,44.23,0,0,1,702.87,92.61Zm27.25,0a17.49,17.49,0,0,0,1.43,7.07,18.19,18.19,0,0,0,9.66,9.67,18.22,18.22,0,0,0,14.15,0A18.19,18.19,0,0,0,765,99.68a18.19,18.19,0,0,0,0-14.14,18.19,18.19,0,0,0-9.66-9.67,18.22,18.22,0,0,0-14.15,0,18.19,18.19,0,0,0-9.66,9.67A17.49,17.49,0,0,0,730.12,92.61Z"/></g><path class="cls-10" d="M486.3,92.61a46.66,46.66,0,0,1,3.63-18.75,43.59,43.59,0,0,1,9.87-14.34,42.89,42.89,0,0,1,14.53-9.15A48.91,48.91,0,0,1,532,47.19a55.17,55.17,0,0,1,13.17,1.43,62.43,62.43,0,0,1,9.92,3.25,46.67,46.67,0,0,1,8.31,4.54l-13.63,24a46.93,46.93,0,0,0-4.54-3,44.18,44.18,0,0,0-5.25-2,22.83,22.83,0,0,0-7-1,18.8,18.8,0,0,0-7.39,1.43,19,19,0,0,0-5.91,3.89,18,18,0,0,0-4,5.78,17.49,17.49,0,0,0-1.43,7.07,17,17,0,0,0,1.49,7.07,18.19,18.19,0,0,0,4.09,5.78,19.34,19.34,0,0,0,6.1,3.89,20.08,20.08,0,0,0,7.65,1.43,24.31,24.31,0,0,0,7.4-1,26.74,26.74,0,0,0,5.45-2.34,19.93,19.93,0,0,0,4.54-3.37l13.63,24a38.83,38.83,0,0,1-8.31,5.06,71.11,71.11,0,0,1-10,3.37,55.84,55.84,0,0,1-32-1.75,44.07,44.07,0,0,1-14.79-9.28,42.1,42.1,0,0,1-9.74-14.34A47.52,47.52,0,0,1,486.3,92.61Z"/><path class="cls-10" d="M567.92,49.27h29.84a51.46,51.46,0,0,1,15.38,2.21A35.84,35.84,0,0,1,625.4,58a29.77,29.77,0,0,1,8.11,10.58A34,34,0,0,1,636.43,83a29.8,29.8,0,0,1-1.81,11,33.84,33.84,0,0,1-4,7.52,27.66,27.66,0,0,1-5.84,5.71L641,135.82H608.53l-13-21.93v21.93H567.92Zm27.64,42.56H597a15.22,15.22,0,0,0,8.37-2.2q3.43-2.2,3.43-7.4c0-3.46-1.14-5.92-3.43-7.4a15.22,15.22,0,0,0-8.37-2.2h-1.43Z"/><path class="cls-10" d="M657.45,98.58,630.59,49.27h30.76l10,18.3,9.86-18.3H712L685.09,98.58v37.24H657.45Z"/><path class="cls-10" d="M702.87,92.61A44.23,44.23,0,0,1,706.44,75a45.45,45.45,0,0,1,24.2-24.2,45.39,45.39,0,0,1,35.29,0A45.45,45.45,0,0,1,790.13,75a45.42,45.42,0,0,1,0,35.3,45.36,45.36,0,0,1-24.2,24.2,45.39,45.39,0,0,1-35.29,0,45.36,45.36,0,0,1-24.2-24.2A44.23,44.23,0,0,1,702.87,92.61Zm27.25,0a17.49,17.49,0,0,0,1.43,7.07,18.19,18.19,0,0,0,9.66,9.67,18.22,18.22,0,0,0,14.15,0A18.19,18.19,0,0,0,765,99.68a18.19,18.19,0,0,0,0-14.14,18.19,18.19,0,0,0-9.66-9.67,18.22,18.22,0,0,0-14.15,0,18.19,18.19,0,0,0-9.66,9.67A17.49,17.49,0,0,0,730.12,92.61Z"/></svg>